<?xml version="1.0" encoding="UTF-8" standalone="no"?>
<!-- Created with Inkscape (http://www.inkscape.org/) -->

<svg
   width="158.28999mm"
   height="158.34578mm"
   viewBox="0 0 158.28999 158.34578"
   version="1.1"
   id="svg1"
   xml:space="preserve"
   inkscape:version="1.4.2 (ebf0e940d0, 2025-05-08)"
   sodipodi:docname="github.petexy.linexcenter.svg"
   inkscape:export-filename="../disk-part/images/logo.png"
   inkscape:export-xdpi="96"
   inkscape:export-ydpi="96"
   xmlns:inkscape="http://www.inkscape.org/namespaces/inkscape"
   xmlns:sodipodi="http://sodipodi.sourceforge.net/DTD/sodipodi-0.dtd"
   xmlns="http://www.w3.org/2000/svg"
   xmlns:svg="http://www.w3.org/2000/svg"><sodipodi:namedview
     id="namedview1"
     pagecolor="#505050"
     bordercolor="#eeeeee"
     borderopacity="1"
     inkscape:showpageshadow="0"
     inkscape:pageopacity="0"
     inkscape:pagecheckerboard="0"
     inkscape:deskcolor="#505050"
     inkscape:document-units="mm"
     inkscape:zoom="1"
     inkscape:cx="84.5"
     inkscape:cy="408"
     inkscape:window-width="2560"
     inkscape:window-height="1368"
     inkscape:window-x="0"
     inkscape:window-y="0"
     inkscape:window-maximized="1"
     inkscape:current-layer="layer1"><inkscape:page
       x="0"
       y="0"
       width="158.28998"
       height="158.34578"
       id="page2"
       margin="0"
       bleed="0" /><inkscape:page
       x="168.28998"
       y="0"
       width="1501.3999"
       height="1501.4"
       id="page1"
       margin="0"
       bleed="0" /></sodipodi:namedview><defs
     id="defs1"><inkscape:path-effect
       effect="mirror_symmetry"
       start_point="109.13712,39.780139"
       end_point="109.13712,199.84713"
       center_point="109.13712,119.81363"
       id="path-effect5"
       is_visible="true"
       lpeversion="1.2"
       lpesatellites=""
       mode="vertical"
       discard_orig_path="false"
       fuse_paths="false"
       oposite_fuse="false"
       split_items="false"
       split_open="false"
       link_styles="false" /><inkscape:path-effect
       effect="mirror_symmetry"
       start_point="109.13712,39.780139"
       end_point="109.13712,199.84713"
       center_point="109.13712,119.81363"
       id="path-effect4"
       is_visible="true"
       lpeversion="1.2"
       lpesatellites=""
       mode="vertical"
       discard_orig_path="false"
       fuse_paths="false"
       oposite_fuse="false"
       split_items="false"
       split_open="false"
       link_styles="false" /></defs><rect
     style="fill:#222226;fill-opacity:1;stroke:#1b1b1e;stroke-width:5.13999992;stroke-linejoin:round;paint-order:markers stroke fill;stroke-opacity:1;stroke-dasharray:none"
     id="rect1"
     width="133.12265"
     height="133.12265"
     x="12.951353"
     y="13.32553"
     ry="15.187633" /><rect
     style="display:inline;fill:#1b1b1e;fill-opacity:1;stroke:#054535;stroke-width:2.24688;stroke-linejoin:round;stroke-opacity:0;paint-order:markers stroke fill"
     id="rect4"
     width="73.600151"
     height="146.84808"
     x="79.091957"
     y="5.9496918"
     ry="13.251708" /><g
     inkscape:label="Layer 1"
     inkscape:groupmode="layer"
     id="layer1"
     transform="matrix(1.1621128,0,0,1.1621128,-43.417838,-51.485751)"
     style="display:none"><ellipse
       style="display:inline;fill:#222226;fill-opacity:1;stroke-width:0.19841"
       id="path7"
       inkscape:export-filename="path73.png"
       inkscape:export-xdpi="802.32483"
       inkscape:export-ydpi="802.32483"
       ry="60.387474"
       rx="60.366199"
       cy="112.43198"
       cx="105.46552" /></g><g
     inkscape:label="Layer 1"
     id="g85"
     style="display:inline;fill:#ffffff;fill-opacity:1"
     transform="matrix(0.98924694,0,0,0.98924694,-28.818572,-39.352381)"
     inkscape:export-filename="g85.png"
     inkscape:export-xdpi="802.32483"
     inkscape:export-ydpi="802.32483"><g
       id="g99"
       style="fill:#ffffff;fill-opacity:1"><g
         id="g77"
         style="fill:#ffffff;fill-opacity:1"><path
           style="fill:#ffffff;fill-opacity:1;stroke-width:0.264583"
           d="m 87.364822,120.87492 c 3.836176,7.07312 18.601688,26.83717 19.717598,7.87401 0.0497,-10.02409 -0.85762,-9.44118 -7.873961,-15.45519 C 89.312293,104.2147 74.987569,91.493392 68.94882,86.125136 44.18932,71.522225 63.740455,145.32594 84.566698,142.34948 51.060244,105.48625 61.034864,67.347 87.364822,120.87492 Z m 43.544608,0 c -3.83618,7.07312 -18.60169,26.83717 -19.7176,7.87401 -0.0497,-10.02409 0.85762,-9.44118 7.87396,-15.45519 9.89616,-9.07904 24.22089,-21.800348 30.25964,-27.168604 24.7595,-14.602911 5.20836,59.200804 -15.61788,56.224344 33.50645,-36.86323 23.53183,-75.00248 -2.79812,-21.47456 z"
           id="path71"
           sodipodi:nodetypes="cccccc"
           inkscape:path-effect="#path-effect5"
           inkscape:original-d="m 87.364822,120.87492 c 3.836176,7.07312 18.601688,26.83717 19.717598,7.87401 0.0497,-10.02409 -0.85762,-9.44118 -7.873961,-15.45519 C 89.312293,104.2147 74.987569,91.493392 68.94882,86.125136 44.18932,71.522225 63.740455,145.32594 84.566698,142.34948 51.060244,105.48625 61.034864,67.347 87.364822,120.87492 Z" /><path
           id="path83"
           style="display:inline;fill:#ffffff;fill-opacity:1;stroke-width:0.264583"
           d="m 142.15128,198.63862 c 6.83114,5.47333 13.11959,5.83335 14.73491,7.86498 -4.82795,-0.69463 -10.11546,-0.77315 -14.71685,0.0444 -4.60139,-0.81761 -9.55044,-0.72522 -14.37839,-0.0306 1.61532,-2.03163 7.52893,-2.40499 14.36033,-7.87887 z"
           transform="matrix(-1,0,0,1,251.28937,-47.804896)" /><path
           id="path74"
           style="fill:#ffffff;fill-opacity:1;stroke-width:0.264583"
           d="m 83.125226,148.90568 10.925589,3.91489 -11.538637,0.34774 11.558084,0.78066 -10.800109,4.0376 12.246606,-3.27453 -0.46488,-1.17239 0.0065,-0.46534 0.424133,-1.14877 z m 52.023874,0 -12.1577,3.01986 0.20975,1.25249 -0.0417,0.40607 -0.40191,1.12794 12.24661,3.27453 -10.80011,-4.0376 11.55808,-0.78066 -11.53863,-0.34774 z"
           sodipodi:nodetypes="cccccccccccccccccccc" /><path
           style="fill:#ffffff;fill-opacity:1;stroke-width:0.264583"
           d="m 104.57859,147.92813 c -3.63865,-8.96971 -5.275827,-1.19057 -10.077201,-7.59241 -1.081836,8.83493 6.287821,13.05903 10.077201,7.59241 z m 9.11707,0 c 3.63865,-8.96971 5.27582,-1.19057 10.0772,-7.59241 1.08183,8.83493 -6.28782,13.05903 -10.0772,7.59241 z"
           id="path75"
           sodipodi:nodetypes="ccc"
           inkscape:path-effect="#path-effect4"
           inkscape:original-d="m 104.57859,147.92813 c -3.63865,-8.96971 -5.275827,-1.19057 -10.077201,-7.59241 -1.081836,8.83493 6.287821,13.05903 10.077201,7.59241 z" /><path
           id="path77"
           style="fill:#ffffff;fill-opacity:1;stroke-width:0.264583"
           d="m 94.489301,158.84919 14.644159,3.92184 14.28022,-3.9098 c -5.30751,-0.23135 -8.61292,-0.17582 -14.27744,0.24401 -5.66453,-0.41978 -9.339432,-0.48741 -14.646939,-0.25605 z" /></g><g
         id="g84"
         transform="matrix(-1,0,0,1,251.28937,-47.804895)"
         style="fill:#ffffff;fill-opacity:1" /></g></g><g
     transform="matrix(0.04101241,0,0,0.04101241,120.10316,89.709512)"
     id="g4"
     style="display:none"><g
       transform="matrix(6.2564,0,0,6.2564,1275.5,1132.8)"
       id="g3"
       style="display:inline"><circle
         cx="-176.17"
         cy="-43.285"
         r="119.99"
         fill="#055845"
         stroke-linecap="round"
         stroke-width="0.039959"
         style="display:none;fill:#055845;fill-opacity:1;paint-order:markers stroke fill"
         id="circle1" /><rect
         style="display:inline;fill:#054f3d;fill-opacity:1;stroke:#07634c;stroke-width:14.1471;stroke-linejoin:round;stroke-dasharray:none;stroke-opacity:1;paint-order:markers stroke fill"
         id="rect2"
         width="191.03326"
         height="191.03326"
         x="-262.67209"
         y="-123.95256"
         ry="35.269325"
         transform="translate(-2.2604152e-6)" /><rect
         style="fill:#07634c;fill-opacity:1;stroke:#2c2c2c;stroke-width:8.65662;stroke-linejoin:round;stroke-opacity:0;paint-order:markers stroke fill"
         id="rect3"
         width="108.33817"
         height="214.36914"
         x="-271.25723"
         y="-136.0423"
         ry="25.560892" /><g
         transform="matrix(0.18442,0,0,0.18442,19.685656,-171.25644)"
         fill="#7ecf74"
         id="g2"
         style="display:inline"><path
           d="m -731.76,439.81 c -2.3527,0.0189 -4.738,1.0462 -6.639,2.8406 l -77.438,73.095 c 0,0 0.1935,19.465 0.34195,38.708 l -121.35,142.32 37.008,31.554 121.19,-142.14 c 19.036,-2.9243 38.313,-5.8979 38.432,-5.9667 l 60.511,-87.527 c 2.6428,-3.8228 2.5956,-8.8108 -0.94079,-11.826 l -45.93,-39.162 c -1.5472,-1.3192 -3.3573,-1.9145 -5.1872,-1.8998 z m -363.42,396.18 c -0.6545,0.77951 -1.3054,1.5614 -1.9662,2.3367 -35.123,41.19 -76.919,73.881 -116.5,91.118 l -23.923,28.059 c -4.0494,3.982 -7.9386,8.1587 -11.642,12.502 -46.076,54.04 -54.646,122.39 -19.143,152.66 0.037,0.03 0.075,0.06 0.1118,0.09 l -0.01,0.011 c 0.092,0.084 0.1844,0.1678 0.2776,0.2506 35.503,30.27 101.64,11.002 147.71,-43.038 3.7033,-4.3435 7.2124,-8.8441 10.504,-13.472 l 23.924,-28.059 c 10.764,-41.804 36.435,-88.242 71.554,-129.44 0.6657,-0.78044 1.3395,-1.5522 2.0103,-2.327 z"
           style="paint-order:markers stroke fill"
           id="path1" /><path
           d="m -1249.5,404.23 91.142,77.709 40.498,120.82 -38.081,44.664 -0.021,-0.0182 -37.76,44.288 -125.7,-20.887 -91.12,-77.69 a 200.32,198.76 40.452 0 0 70.627,158.33 200.32,198.76 40.452 0 0 216.23,28.751 l 368.32,314.04 c 33.874,28.881 84.395,24.862 113.28,-9.0113 28.881,-33.874 24.862,-84.395 -9.0114,-113.28 l -368.32,-314.04 a 200.32,198.76 40.452 0 0 -62.577,-208.96 200.32,198.76 40.452 0 0 -167.5,-44.708 z m 520.08,606.52 a 27.489,27.489 0 0 1 38.752,-3.0829 27.489,27.489 0 0 1 3.0829,38.752 27.489,27.489 0 0 1 -38.752,3.0828 27.489,27.489 0 0 1 -3.0828,-38.752 z"
           color="#000000"
           stroke-linecap="round"
           stroke-width="47.951"
           style="-inkscape-stroke:none;paint-order:markers stroke fill"
           id="path2" /></g></g></g></svg>
